<svg xmlns="http://www.w3.org/2000/svg" width="1200" height="675" viewBox="0 0 1200 675">
  <defs>
    <linearGradient id="bg1" x1="0%" y1="0%" x2="100%" y2="100%">
      <stop offset="0%" stop-color="#0f172a"/>
      <stop offset="100%" stop-color="#1e3a5f"/>
    </linearGradient>
    <linearGradient id="accent1" x1="0%" y1="0%" x2="100%" y2="0%">
      <stop offset="0%" stop-color="#6366f1"/>
      <stop offset="100%" stop-color="#818cf8"/>
    </linearGradient>
  </defs>
  <rect width="1200" height="675" fill="url(#bg1)"/>
  <!-- Grid pattern -->
  <g opacity="0.06" stroke="#818cf8" stroke-width="1">
    <line x1="200" y1="0" x2="200" y2="675"/><line x1="400" y1="0" x2="400" y2="675"/>
    <line x1="600" y1="0" x2="600" y2="675"/><line x1="800" y1="0" x2="800" y2="675"/>
    <line x1="1000" y1="0" x2="1000" y2="675"/>
    <line x1="0" y1="135" x2="1200" y2="135"/><line x1="0" y1="270" x2="1200" y2="270"/>
    <line x1="0" y1="405" x2="1200" y2="405"/><line x1="0" y1="540" x2="1200" y2="540"/>
  </g>
  <!-- Dashboard mockup -->
  <rect x="120" y="90" width="960" height="495" rx="12" fill="#1e293b" opacity="0.8"/>
  <rect x="120" y="90" width="960" height="48" rx="12" fill="#334155"/>
  <circle cx="152" cy="114" r="7" fill="#ef4444" opacity="0.8"/>
  <circle cx="176" cy="114" r="7" fill="#eab308" opacity="0.8"/>
  <circle cx="200" cy="114" r="7" fill="#22c55e" opacity="0.8"/>
  <!-- Sidebar -->
  <rect x="120" y="138" width="200" height="447" fill="#0f172a" opacity="0.5"/>
  <rect x="140" y="168" width="160" height="10" rx="5" fill="#475569" opacity="0.4"/>
  <rect x="140" y="198" width="120" height="10" rx="5" fill="#475569" opacity="0.3"/>
  <rect x="140" y="228" width="140" height="10" rx="5" fill="url(#accent1)" opacity="0.6"/>
  <rect x="140" y="258" width="100" height="10" rx="5" fill="#475569" opacity="0.3"/>
  <rect x="140" y="288" width="130" height="10" rx="5" fill="#475569" opacity="0.3"/>
  <!-- Chart area -->
  <rect x="340" y="158" width="360" height="200" rx="8" fill="#0f172a" opacity="0.4"/>
  <polyline points="360,328 400,300 440,310 480,270 520,280 560,240 600,260 640,220 680,230" fill="none" stroke="#6366f1" stroke-width="2.5" opacity="0.8"/>
  <polyline points="360,328 400,315 440,320 480,295 520,305 560,290 600,300 640,275 680,270" fill="none" stroke="#22d3ee" stroke-width="2" opacity="0.5"/>
  <!-- Stats cards -->
  <rect x="720" y="158" width="340" height="90" rx="8" fill="#0f172a" opacity="0.4"/>
  <rect x="740" y="178" width="80" height="12" rx="6" fill="#6366f1" opacity="0.5"/>
  <rect x="740" y="200" width="140" height="20" rx="4" fill="#e2e8f0" opacity="0.15"/>
  <rect x="740" y="228" width="60" height="8" rx="4" fill="#22c55e" opacity="0.4"/>
  <rect x="720" y="268" width="340" height="90" rx="8" fill="#0f172a" opacity="0.4"/>
  <rect x="740" y="288" width="100" height="12" rx="6" fill="#22d3ee" opacity="0.5"/>
  <rect x="740" y="310" width="160" height="20" rx="4" fill="#e2e8f0" opacity="0.15"/>
  <rect x="740" y="338" width="50" height="8" rx="4" fill="#eab308" opacity="0.4"/>
  <!-- Bottom table -->
  <rect x="340" y="378" width="720" height="180" rx="8" fill="#0f172a" opacity="0.4"/>
  <rect x="360" y="398" width="680" height="1" fill="#475569" opacity="0.3"/>
  <rect x="360" y="410" width="200" height="10" rx="5" fill="#e2e8f0" opacity="0.1"/>
  <rect x="360" y="440" width="180" height="10" rx="5" fill="#e2e8f0" opacity="0.08"/>
  <rect x="360" y="470" width="220" height="10" rx="5" fill="#e2e8f0" opacity="0.08"/>
  <rect x="360" y="500" width="160" height="10" rx="5" fill="#e2e8f0" opacity="0.08"/>
  <rect x="600" y="410" width="80" height="10" rx="5" fill="#6366f1" opacity="0.3"/>
  <rect x="600" y="440" width="60" height="10" rx="5" fill="#22c55e" opacity="0.3"/>
  <rect x="600" y="470" width="90" height="10" rx="5" fill="#eab308" opacity="0.3"/>
  <rect x="600" y="500" width="70" height="10" rx="5" fill="#6366f1" opacity="0.3"/>
</svg>