<svg xmlns="http://www.w3.org/2000/svg" width="1200" height="675" viewBox="0 0 1200 675">
  <defs>
    <linearGradient id="bg2" x1="0%" y1="0%" x2="100%" y2="100%">
      <stop offset="0%" stop-color="#0a0a0a"/>
      <stop offset="100%" stop-color="#1a1a2e"/>
    </linearGradient>
    <linearGradient id="accent2" x1="0%" y1="0%" x2="0%" y2="100%">
      <stop offset="0%" stop-color="#22c55e"/>
      <stop offset="100%" stop-color="#16a34a"/>
    </linearGradient>
  </defs>
  <rect width="1200" height="675" fill="url(#bg2)"/>
  <!-- Code editor mockup -->
  <rect x="80" y="60" width="1040" height="555" rx="12" fill="#1a1a2e" opacity="0.9"/>
  <rect x="80" y="60" width="1040" height="40" rx="12" fill="#2a2a3e"/>
  <!-- Tab bar -->
  <rect x="100" y="68" width="120" height="24" rx="6" fill="#1a1a2e"/>
  <rect x="112" y="76" width="60" height="8" rx="4" fill="#22c55e" opacity="0.6"/>
  <rect x="230" y="68" width="100" height="24" rx="6" fill="transparent"/>
  <rect x="242" y="76" width="50" height="8" rx="4" fill="#64748b" opacity="0.4"/>
  <!-- Line numbers -->
  <g fill="#475569" opacity="0.3" font-family="monospace" font-size="13">
    <text x="100" y="125">1</text><text x="100" y="148">2</text>
    <text x="100" y="171">3</text><text x="100" y="194">4</text>
    <text x="100" y="217">5</text><text x="100" y="240">6</text>
    <text x="100" y="263">7</text><text x="100" y="286">8</text>
    <text x="100" y="309">9</text><text x="94" y="332">10</text>
    <text x="94" y="355">11</text><text x="94" y="378">12</text>
    <text x="94" y="401">13</text><text x="94" y="424">14</text>
    <text x="94" y="447">15</text><text x="94" y="470">16</text>
    <text x="94" y="493">17</text><text x="94" y="516">18</text>
    <text x="94" y="539">19</text><text x="94" y="562">20</text>
  </g>
  <!-- Code lines -->
  <rect x="130" y="113" width="100" height="10" rx="3" fill="#c084fc" opacity="0.6"/>
  <rect x="240" y="113" width="60" height="10" rx="3" fill="#e2e8f0" opacity="0.15"/>
  <rect x="310" y="113" width="140" height="10" rx="3" fill="#fbbf24" opacity="0.4"/>
  <rect x="130" y="136" width="50" height="10" rx="3" fill="#c084fc" opacity="0.6"/>
  <rect x="190" y="136" width="180" height="10" rx="3" fill="#22c55e" opacity="0.5"/>
  <rect x="150" y="159" width="80" height="10" rx="3" fill="#60a5fa" opacity="0.5"/>
  <rect x="240" y="159" width="40" height="10" rx="3" fill="#e2e8f0" opacity="0.15"/>
  <rect x="290" y="159" width="120" height="10" rx="3" fill="#fbbf24" opacity="0.4"/>
  <rect x="150" y="182" width="60" height="10" rx="3" fill="#60a5fa" opacity="0.5"/>
  <rect x="220" y="182" width="200" height="10" rx="3" fill="#22c55e" opacity="0.5"/>
  <rect x="150" y="205" width="100" height="10" rx="3" fill="#f472b6" opacity="0.5"/>
  <rect x="260" y="205" width="80" height="10" rx="3" fill="#e2e8f0" opacity="0.15"/>
  <rect x="130" y="228" width="30" height="10" rx="3" fill="#e2e8f0" opacity="0.1"/>
  <rect x="130" y="251" width="120" height="10" rx="3" fill="#c084fc" opacity="0.6"/>
  <rect x="260" y="251" width="80" height="10" rx="3" fill="#e2e8f0" opacity="0.15"/>
  <rect x="150" y="274" width="70" height="10" rx="3" fill="#22c55e" opacity="0.5"/>
  <rect x="230" y="274" width="50" height="10" rx="3" fill="#e2e8f0" opacity="0.15"/>
  <rect x="290" y="274" width="160" height="10" rx="3" fill="#fbbf24" opacity="0.4"/>
  <rect x="150" y="297" width="90" height="10" rx="3" fill="#60a5fa" opacity="0.5"/>
  <rect x="250" y="297" width="40" height="10" rx="3" fill="#e2e8f0" opacity="0.15"/>
  <rect x="150" y="320" width="120" height="10" rx="3" fill="#f472b6" opacity="0.5"/>
  <rect x="280" y="320" width="180" height="10" rx="3" fill="#22c55e" opacity="0.4"/>
  <rect x="130" y="343" width="30" height="10" rx="3" fill="#e2e8f0" opacity="0.1"/>
  <rect x="130" y="366" width="80" height="10" rx="3" fill="#c084fc" opacity="0.6"/>
  <rect x="220" y="366" width="100" height="10" rx="3" fill="#e2e8f0" opacity="0.15"/>
  <rect x="150" y="389" width="200" height="10" rx="3" fill="#22c55e" opacity="0.5"/>
  <rect x="150" y="412" width="60" height="10" rx="3" fill="#60a5fa" opacity="0.5"/>
  <rect x="220" y="412" width="140" height="10" rx="3" fill="#fbbf24" opacity="0.4"/>
  <rect x="150" y="435" width="110" height="10" rx="3" fill="#f472b6" opacity="0.5"/>
  <rect x="130" y="458" width="30" height="10" rx="3" fill="#e2e8f0" opacity="0.1"/>
  <!-- Highlight current line -->
  <rect x="86" y="316" width="1028" height="20" rx="0" fill="#22c55e" opacity="0.04"/>
  <!-- Terminal at bottom -->
  <rect x="80" y="520" width="1040" height="95" rx="0" fill="#0f0f1a" opacity="0.8"/>
  <rect x="100" y="540" width="60" height="8" rx="4" fill="#22c55e" opacity="0.5"/>
  <rect x="170" y="540" width="200" height="8" rx="4" fill="#e2e8f0" opacity="0.1"/>
  <rect x="100" y="560" width="300" height="8" rx="4" fill="#64748b" opacity="0.2"/>
  <rect x="100" y="580" width="40" height="8" rx="4" fill="#22c55e" opacity="0.5"/>
  <rect x="148" y="580" width="4" height="10" fill="#22c55e" opacity="0.8"/>
</svg>