<svg xmlns="http://www.w3.org/2000/svg" width="1200" height="675" viewBox="0 0 1200 675">
  <defs>
    <linearGradient id="bg5" x1="0%" y1="0%" x2="100%" y2="100%">
      <stop offset="0%" stop-color="#1a0a1a"/>
      <stop offset="50%" stop-color="#1a1030"/>
      <stop offset="100%" stop-color="#0a1a2a"/>
    </linearGradient>
  </defs>
  <rect width="1200" height="675" fill="url(#bg5)"/>
  <!-- Decorative blurs -->
  <circle cx="300" cy="200" r="200" fill="#ec4899" opacity="0.04"/>
  <circle cx="900" cy="450" r="200" fill="#6366f1" opacity="0.04"/>
  <!-- Design tool mockup -->
  <rect x="60" y="40" width="1080" height="595" rx="12" fill="#18181b" opacity="0.9"/>
  <!-- Top toolbar -->
  <rect x="60" y="40" width="1080" height="40" rx="12" fill="#27272a"/>
  <rect x="84" y="52" width="60" height="16" rx="4" fill="#ec4899" opacity="0.4"/>
  <rect x="160" y="56" width="40" height="8" rx="4" fill="#71717a" opacity="0.4"/>
  <rect x="216" y="56" width="50" height="8" rx="4" fill="#71717a" opacity="0.4"/>
  <rect x="282" y="56" width="45" height="8" rx="4" fill="#71717a" opacity="0.4"/>
  <!-- Left panel - layers -->
  <rect x="60" y="80" width="200" height="555" fill="#1f1f23"/>
  <rect x="76" y="96" width="80" height="10" rx="5" fill="#a1a1aa" opacity="0.3"/>
  <rect x="76" y="120" width="168" height="28" rx="6" fill="#ec4899" opacity="0.08"/>
  <rect x="92" y="130" width="100" height="8" rx="4" fill="#ec4899" opacity="0.4"/>
  <rect x="76" y="156" width="168" height="28" rx="6" fill="transparent"/>
  <rect x="92" y="166" width="80" height="8" rx="4" fill="#a1a1aa" opacity="0.2"/>
  <rect x="76" y="192" width="168" height="28" rx="6" fill="transparent"/>
  <rect x="92" y="202" width="120" height="8" rx="4" fill="#a1a1aa" opacity="0.2"/>
  <rect x="76" y="228" width="168" height="28" rx="6" fill="transparent"/>
  <rect x="92" y="238" width="90" height="8" rx="4" fill="#a1a1aa" opacity="0.2"/>
  <!-- Canvas area -->
  <rect x="260" y="80" width="640" height="555" fill="#0a0a0a" opacity="0.5"/>
  <!-- Design canvas content -->
  <rect x="340" y="140" width="480" height="420" rx="16" fill="#18181b" stroke="#3f3f46" stroke-width="1"/>
  <!-- Card design on canvas -->
  <rect x="370" y="170" width="420" height="180" rx="12" fill="#ec4899" opacity="0.08"/>
  <rect x="390" y="190" width="160" height="16" rx="4" fill="#f9a8d4" opacity="0.4"/>
  <rect x="390" y="218" width="300" height="10" rx="5" fill="#e2e8f0" opacity="0.08"/>
  <rect x="390" y="236" width="260" height="10" rx="5" fill="#e2e8f0" opacity="0.06"/>
  <rect x="390" y="270" width="380" height="50" rx="8" fill="#27272a"/>
  <rect x="410" y="286" width="120" height="12" rx="6" fill="#a78bfa" opacity="0.4"/>
  <!-- Button elements on canvas -->
  <rect x="370" y="380" width="200" height="44" rx="10" fill="#ec4899" opacity="0.5"/>
  <rect x="420" y="396" width="100" height="12" rx="6" fill="#fce7f3" opacity="0.4"/>
  <rect x="590" y="380" width="200" height="44" rx="10" fill="#27272a" stroke="#ec4899" stroke-width="1" opacity="0.5"/>
  <rect x="640" y="396" width="100" height="12" rx="6" fill="#ec4899" opacity="0.3"/>
  <!-- Typography samples -->
  <rect x="370" y="454" width="240" height="20" rx="4" fill="#e2e8f0" opacity="0.12"/>
  <rect x="370" y="486" width="380" height="10" rx="5" fill="#e2e8f0" opacity="0.06"/>
  <rect x="370" y="506" width="340" height="10" rx="5" fill="#e2e8f0" opacity="0.05"/>
  <rect x="370" y="526" width="300" height="10" rx="5" fill="#e2e8f0" opacity="0.04"/>
  <!-- Selection handles -->
  <rect x="364" y="374" width="212" height="56" rx="2" fill="none" stroke="#ec4899" stroke-width="1.5" stroke-dasharray="4 4" opacity="0.6"/>
  <circle cx="364" cy="374" r="4" fill="#ec4899" opacity="0.8"/>
  <circle cx="576" cy="374" r="4" fill="#ec4899" opacity="0.8"/>
  <circle cx="364" cy="430" r="4" fill="#ec4899" opacity="0.8"/>
  <circle cx="576" cy="430" r="4" fill="#ec4899" opacity="0.8"/>
  <!-- Right panel - properties -->
  <rect x="900" y="80" width="240" height="555" fill="#1f1f23"/>
  <rect x="916" y="96" width="80" height="10" rx="5" fill="#a1a1aa" opacity="0.3"/>
  <rect x="916" y="124" width="60" height="8" rx="4" fill="#71717a" opacity="0.25"/>
  <rect x="1000" y="120" width="120" height="16" rx="4" fill="#27272a"/>
  <rect x="916" y="156" width="60" height="8" rx="4" fill="#71717a" opacity="0.25"/>
  <rect x="1000" y="152" width="120" height="16" rx="4" fill="#27272a"/>
  <rect x="916" y="188" width="60" height="8" rx="4" fill="#71717a" opacity="0.25"/>
  <!-- Color swatches -->
  <rect x="916" y="220" width="80" height="10" rx="5" fill="#a1a1aa" opacity="0.3"/>
  <rect x="916" y="244" width="28" height="28" rx="6" fill="#ec4899" opacity="0.8"/>
  <rect x="952" y="244" width="28" height="28" rx="6" fill="#a78bfa" opacity="0.8"/>
  <rect x="988" y="244" width="28" height="28" rx="6" fill="#6366f1" opacity="0.8"/>
  <rect x="1024" y="244" width="28" height="28" rx="6" fill="#18181b" stroke="#3f3f46" stroke-width="1"/>
</svg>